<?xml version="1.0" standalone="no"?>
<!DOCTYPE svg PUBLIC "-//W3C//DTD SVG 20010904//EN"
 "http://www.w3.org/TR/2001/REC-SVG-20010904/DTD/svg10.dtd">
<svg version="1.0" xmlns="http://www.w3.org/2000/svg"
 width="700.000000pt" height="700.000000pt" viewBox="0 0 700.000000 700.000000"
 preserveAspectRatio="xMidYMid meet">
<metadata>
Created by potrace 1.11, written by Peter Selinger 2001-2013
</metadata>
<g transform="translate(0.000000,700.000000) scale(0.100000,-0.100000)"
fill="#000000" stroke="none">
<path d="M4569 6527 c-71 -38 -119 -130 -103 -200 11 -51 41 -104 73 -126 16
-12 87 -40 158 -62 374 -120 643 -279 886 -525 230 -234 387 -503 498 -855 48
-154 79 -195 164 -219 121 -34 244 60 245 187 0 23 -16 95 -36 160 -167 551
-502 1007 -965 1313 -199 132 -420 235 -668 314 -135 42 -190 45 -252 13z"/>
<path d="M1475 6132 c-109 -38 -235 -132 -386 -290 -214 -222 -283 -393 -219
-540 48 -110 177 -192 450 -287 174 -61 369 -141 397 -163 l21 -17 -70 -105
c-161 -242 -290 -568 -339 -860 -7 -41 -13 -76 -14 -78 -3 -4 -126 38 -190 65
-32 14 -134 60 -225 103 -217 103 -327 140 -417 140 -93 0 -157 -23 -209 -76
-52 -51 -77 -98 -106 -201 -21 -72 -23 -98 -23 -323 0 -205 3 -256 18 -310 57
-207 152 -295 317 -293 100 1 200 35 455 156 186 88 334 147 368 147 10 0 18
-22 26 -72 16 -99 56 -254 92 -363 45 -131 165 -373 248 -498 39 -59 71 -109
71 -111 0 -10 -223 -104 -385 -161 -316 -113 -426 -179 -481 -291 -68 -139
-12 -302 177 -508 275 -301 484 -405 653 -322 112 55 179 166 291 481 37 105
88 233 112 287 l45 96 107 -73 c264 -180 553 -298 874 -356 37 -7 67 -16 67
-20 0 -24 -69 -189 -158 -379 -116 -249 -145 -335 -146 -435 0 -159 95 -262
287 -309 148 -37 487 -38 630 -1 254 65 341 226 257 476 -16 49 -68 171 -116
271 -87 186 -138 306 -149 357 l-6 29 93 17 c304 56 622 190 870 368 l77 55
16 -25 c26 -40 82 -175 146 -358 75 -210 134 -336 189 -397 56 -65 87 -85 156
-103 147 -38 324 54 549 286 112 116 181 207 222 295 24 51 28 72 28 149 0
105 -12 134 -85 205 -66 64 -189 125 -415 205 -199 70 -412 166 -421 189 -3 7
25 57 62 112 143 214 266 512 318 774 127 632 -31 1283 -434 1790 -88 111
-281 298 -392 380 -294 218 -628 355 -984 406 -157 22 -450 22 -594 0 -333
-52 -615 -161 -887 -342 -119 -80 -128 -84 -141 -67 -33 42 -114 230 -177 408
-139 392 -232 506 -414 505 -31 -1 -79 -8 -106 -18z m1663 -1539 l2 -203 -115
0 -115 0 0 193 c0 140 3 196 12 205 9 9 43 12 113 10 l100 -3 3 -202z m446
201 c14 -5 16 -33 16 -205 l0 -199 -115 0 -115 0 0 198 c0 109 3 202 7 205 8
9 186 9 207 1z m464 -202 l2 -202 -116 0 c-116 0 -116 0 -110 23 3 12 6 102 6
199 l0 177 93 4 c50 1 99 3 107 2 13 0 15 -31 18 -203z m-1438 -627 l0 -115
-69 0 c-75 0 -81 -3 -152 -88 l-36 -43 -129 3 -129 3 -3 90 c-5 142 -14 133
134 137 l126 3 52 57 c28 31 58 58 66 61 8 3 43 6 78 6 l62 1 0 -115z m1986
50 l61 -65 69 0 c38 0 93 -3 122 -7 l53 -6 -3 -106 -3 -106 -121 -3 -122 -3
-60 66 -59 65 -72 0 -71 0 0 115 0 115 72 0 73 0 61 -65z m-1986 -500 l0 -115
-67 0 -68 0 -60 -63 -61 -64 -122 -5 c-93 -5 -124 -3 -132 7 -7 8 -10 51 -8
111 l3 99 120 6 c128 6 152 14 179 60 9 15 30 39 47 53 26 22 40 26 100 26
l69 0 0 -115z m1988 47 l57 -63 123 -6 122 -6 0 -109 0 -108 -79 0 c-43 0 -98
-3 -123 -6 -45 -6 -45 -6 -89 49 -59 73 -84 87 -158 87 l-61 0 0 116 0 116 76
-4 75 -3 57 -63z m-1988 -507 l0 -115 -68 0 -68 0 -64 -65 -65 -66 -125 3
-125 3 -3 99 c-2 64 1 103 9 112 9 11 42 14 133 14 l121 1 40 49 c50 62 85 79
158 80 l57 0 0 -115z m1923 101 c18 -8 50 -37 72 -65 l40 -50 66 -1 c36 0 94
-3 128 -6 l62 -7 -3 -106 -3 -106 -121 -3 -120 -3 -63 66 -63 65 -69 0 -69 0
0 115 0 115 55 0 c31 0 70 -6 88 -14z m-1395 -759 l2 -208 -112 3 -113 3 -3
195 c-1 107 0 200 3 208 3 10 31 12 112 10 l108 -3 3 -208z m460 1 l2 -208
-115 0 -115 0 0 203 c0 112 3 207 7 211 4 3 54 5 112 4 l106 -3 3 -207z m452
2 l0 -211 -107 3 -108 3 -9 183 c-4 100 -5 194 -2 207 6 25 8 25 116 25 l110
0 0 -210z"/>
<path d="M4376 5937 c-48 -27 -76 -77 -76 -135 0 -89 44 -133 171 -172 561
-169 945 -541 1120 -1085 24 -71 51 -142 60 -156 41 -59 148 -78 210 -36 48
32 82 101 74 152 -11 76 -87 284 -150 414 -109 223 -223 380 -399 548 -213
203 -455 346 -756 447 -152 52 -198 56 -254 23z"/>
</g>
</svg>
