<?xml version="1.0" encoding="UTF-8" standalone="no"?>
<!DOCTYPE svg PUBLIC "-//W3C//DTD SVG 1.1//EN" "http://www.w3.org/Graphics/SVG/1.1/DTD/svg11.dtd">
<!-- Created with Vectornator (http://vectornator.io/) -->
<svg height="100%" stroke-miterlimit="10" style="fill-rule:nonzero;clip-rule:evenodd;stroke-linecap:round;stroke-linejoin:round;" version="1.1" viewBox="0 0 1024 1024" width="100%" xml:space="preserve" xmlns="http://www.w3.org/2000/svg" xmlns:xlink="http://www.w3.org/1999/xlink">
<defs>
<linearGradient gradientTransform="matrix(-1.65925 621.513 -621.513 -1.65925 486.149 200.122)" gradientUnits="userSpaceOnUse" id="LinearGradient" x1="0" x2="1" y1="0" y2="0">
<stop offset="0.177158" stop-color="#1eeafa"/>
<stop offset="1" stop-color="#00ff8c"/>
</linearGradient>
</defs>
<clipPath id="ArtboardFrame">
<rect height="1024" width="1024" x="0" y="0"/>
</clipPath>
<g clip-path="url(#ArtboardFrame)" id="Background">
<path d="M150 1.13687e-13L874 1.13687e-13C956.843 1.13687e-13 1024 67.1573 1024 150L1024 874C1024 956.843 956.843 1024 874 1024L150 1024C67.1573 1024-5.68434e-14 956.843-5.68434e-14 874L-5.68434e-14 150C-5.68434e-14 67.1573 67.1573 1.13687e-13 150 1.13687e-13Z" fill="#0f0f0f" fill-rule="nonzero" opacity="1" stroke="none"/>
<path d="M512 62L512 62C760.528 62 962 263.472 962 512L962 512C962 760.528 760.528 962 512 962L512 962C263.472 962 62 760.528 62 512L62 512C62 263.472 263.472 62 512 62Z" fill="#181f2a" fill-rule="nonzero" opacity="1" stroke="none"/>
</g>
<g id="C">
<g opacity="1">
<path d="M512 199.719C339.529 199.719 199.719 339.529 199.719 512L215.719 512C215.719 348.366 348.366 215.719 512 215.719C564.707 215.719 615.4 229.492 660.031 255.281L668.031 241.438C620.983 214.251 567.537 199.719 512 199.719ZM215.719 512.375L199.719 512.406C199.932 684.728 339.68 824.281 512.094 824.281C567.767 824.262 621.349 809.641 668.469 782.312L660.438 768.469C615.739 794.393 564.927 808.263 512.094 808.281C348.511 808.281 215.921 675.868 215.719 512.375Z" fill="#00ffff" fill-rule="nonzero" opacity="1" stroke="none"/>
<path d="M511.188 199.656C365.936 199.879 235.996 301.981 205.969 449.875L221.625 453.062C254.183 292.7 410.575 189.067 570.938 221.625C622.591 232.112 669.518 255.721 708.125 289.875L718.75 277.875C678.052 241.871 628.551 217.019 574.125 205.969C552.997 201.679 531.938 199.624 511.188 199.656ZM205.875 450.25C171.797 619.169 281.003 783.757 449.969 818.062C504.532 829.121 559.916 825.47 611.531 808.062L606.438 792.875C557.475 809.388 504.937 812.87 453.156 802.375C292.845 769.827 189.231 613.67 221.562 453.406L205.875 450.25Z" fill="#00ffff" fill-rule="nonzero" opacity="1" stroke="none"/>
<path d="M505.781 199.719C485.383 200.148 464.897 202.596 444.562 207.094C276.162 244.344 169.844 411.037 207.094 579.438L222.719 576C187.377 416.228 288.228 258.06 448 222.719C499.463 211.335 551.915 213.833 601.062 229.375L605.906 214.125C573.525 203.885 539.779 199.004 505.781 199.719ZM222.781 576.344L207.156 579.844C244.582 748.053 411.218 854.144 579.562 816.906C633.917 804.863 683.051 779.017 723.156 742.156L712.312 730.375C674.268 765.342 627.677 789.853 576.094 801.281C416.372 836.612 258.29 735.934 222.781 576.344Z" fill="#00ffff" fill-rule="nonzero" opacity="1" stroke="none"/>
</g>
<g opacity="1">
<g opacity="1">
<path d="M735 684.031C716.248 684.031 701.031 699.248 701.031 718C701.031 736.752 716.248 751.969 735 751.969C753.752 751.969 768.969 736.752 768.969 718C768.969 699.248 753.752 684.031 735 684.031ZM735 697.094C746.552 697.094 755.906 706.448 755.906 718C755.906 729.552 746.552 738.906 735 738.906C723.448 738.906 714.094 729.552 714.094 718C714.094 706.448 723.448 697.094 735 697.094Z" fill="#00ffff" fill-rule="nonzero" opacity="1" stroke="none"/>
<path d="M724.286 718C724.286 712.083 729.083 707.286 735 707.286C740.917 707.286 745.714 712.083 745.714 718C745.714 723.917 740.917 728.714 735 728.714C729.083 728.714 724.286 723.917 724.286 718Z" fill="#00ffff" fill-rule="nonzero" opacity="1" stroke="none"/>
</g>
<path d="M730 266.031L696.031 300L730 333.969L763.969 300L730 266.031ZM730 284.438L745.562 300L730 315.562L714.438 300L730 284.438Z" fill="#00ffff" fill-rule="nonzero" opacity="1" stroke="none"/>
</g>
<g opacity="1">
<g opacity="1">
<path d="M700 748.953L722.42 747.197L735 751.953C719.125 755.203 705.5 820.078 700 748.953Z" fill="#00ffff" fill-rule="nonzero" opacity="1" stroke="none"/>
<path d="M712.107 748.727C712.107 745.966 714.346 743.727 717.107 743.727C719.868 743.727 722.107 745.966 722.107 748.727C722.107 751.489 719.868 753.727 717.107 753.727C714.346 753.727 712.107 751.489 712.107 748.727Z" fill="#00ffff" fill-rule="nonzero" opacity="1" stroke="none"/>
</g>
<g opacity="1">
<path d="M715.758 808.992C715.758 812.725 712.733 815.751 709 815.751C705.267 815.751 702.242 812.725 702.242 808.992C702.242 805.26 705.267 802.234 709 802.234C712.733 802.234 715.758 805.26 715.758 808.992Z" fill="#00ffff" fill-rule="nonzero" opacity="1" stroke="none"/>
<path d="M715 805.981L715 807.97L703 807.992L702.989 805.998C707 796.992 711 796.992 715 805.981Z" fill="#00ffff" fill-rule="nonzero" opacity="1" stroke="none"/>
</g>
</g>
</g>
<g id="Cassette" visibility="hidden">
<path d="M512 362C504.963 362 497.979 362.472 491.094 363.438L492.906 376.531C499.192 375.65 505.57 375.188 512 375.188C518.725 375.187 525.406 375.663 531.969 376.625L533.844 363.594C526.654 362.54 519.359 362 512 362ZM450.094 375.406C437.051 381.354 424.902 389.166 414.062 398.562L422.625 408.531C432.52 399.954 443.6 392.833 455.5 387.406L450.094 375.406ZM574.812 375.812L569.312 387.781C581.177 393.285 592.191 400.452 602.031 409.094L610.656 399.188C599.877 389.721 587.816 381.845 574.812 375.812ZM386.031 430.875C378.253 442.94 372.228 456.075 368.156 469.906L380.719 473.656C384.432 461.042 389.934 449.04 397.031 438.031L386.031 430.875ZM638.531 431.75L627.469 438.844C634.491 449.901 639.904 461.889 643.531 474.531L656.125 470.875C652.147 457.012 646.228 443.868 638.531 431.75ZM362 512.438C362 512.594 362 512.611 362 512.781C362.001 527.222 364.025 541.396 367.969 555L380.562 551.281C376.965 538.871 375.126 525.971 375.125 512.781C375.125 512.625 375.125 512.611 375.125 512.469L362 512.438ZM648.875 512.75C648.875 526.039 646.993 539.067 643.344 551.562L655.969 555.281C659.97 541.583 662 527.299 662 512.75L648.875 512.75ZM396.688 586.906L385.656 594.031C393.385 606.139 402.824 617.09 413.625 626.531L422.219 616.594C412.357 607.974 403.742 597.959 396.688 586.906ZM627.125 587.188C620.044 598.222 611.445 608.185 601.562 616.781L610.125 626.75C620.948 617.335 630.399 606.432 638.156 594.344L627.125 587.188ZM454.938 637.812L449.469 649.812C462.438 655.798 476.208 659.878 490.469 661.938L492.344 648.906C479.336 647.028 466.766 643.272 454.938 637.812ZM568.75 637.969C556.908 643.395 544.295 647.094 531.281 648.938L533.094 662C547.361 659.979 561.172 655.919 574.156 649.969L568.75 637.969Z" fill="#00ffff" fill-rule="nonzero" opacity="1" stroke="none"/>
<g opacity="1">
<path d="M511.531 406.031C502.334 406.068 493.176 407.331 484.281 409.75L492.688 440.625C505.09 437.252 518.151 437.168 530.875 440.531L539.062 409.594C529.965 407.189 520.729 405.995 511.531 406.031ZM586.719 436.875L564.125 459.562C573.3 468.705 579.968 480.128 583.375 492.625L614.25 484.219C609.373 466.33 599.854 449.963 586.719 436.875ZM436.938 437.219C423.918 450.268 414.471 466.534 409.625 484.719C409.587 484.861 409.6 484.858 409.562 485L440.5 493.156C440.526 493.056 440.536 493.069 440.562 492.969C443.952 480.251 450.517 468.941 459.594 459.844L436.938 437.219ZM583.469 530.938C583.456 530.986 583.451 530.982 583.438 531.031C580.057 543.715 573.539 555.009 564.5 564.094L587.156 586.656C600.121 573.624 609.542 557.416 614.375 539.281C614.394 539.212 614.388 539.226 614.406 539.156L583.469 530.938ZM440.656 531.469L409.812 539.938C414.715 557.82 424.221 574.149 437.375 587.219L459.938 564.531C450.749 555.402 444.081 543.961 440.656 531.469ZM531.406 583.344C519.008 586.733 505.945 586.845 493.219 583.5L485.062 614.469C503.261 619.253 522.059 619.08 539.844 614.219L531.406 583.344Z" fill="#00ffff" fill-rule="nonzero" opacity="1" stroke="none"/>
<path d="M512 404C452.353 404 404 452.353 404 512C404 571.647 452.353 620 512 620C571.647 620 620 571.647 620 512C620 452.353 571.647 404 512 404ZM512 420C562.81 420 604 461.19 604 512C604 562.81 562.81 604 512 604C461.19 604 420 562.81 420 512C420 461.19 461.19 420 512 420Z" fill="#00ffff" fill-rule="nonzero" opacity="1" stroke="none"/>
</g>
</g>
<g id="Vinyl" visibility="hidden">
<path d="M511.938 308C399.302 308.039 308 399.361 308 512C308 512.157 308 512.155 308 512.312L316 512.312C316 512.162 316 512.151 316 512C316 403.778 403.719 316.037 511.938 316L511.938 308ZM708 511.844C708 511.918 708 511.926 708 512C708 620.163 620.371 707.877 512.219 708L512.25 716C624.817 715.872 716 624.578 716 512C716 511.923 716 511.921 716 511.844L708 511.844Z" fill="#00ffff" fill-rule="nonzero" opacity="1" stroke="none"/>
<path d="M512 295.5C392.43 295.5 295.5 392.43 295.5 512L303.5 512C303.5 396.849 396.849 303.5 512 303.5C512.142 303.5 512.139 303.5 512.281 303.5L512.281 295.5C512.134 295.5 512.148 295.5 512 295.5ZM720.5 512.594C720.187 627.501 626.935 720.5 512 720.5C511.715 720.5 511.441 720.501 511.156 720.5L511.125 728.5C511.42 728.501 511.705 728.5 512 728.5C631.345 728.5 728.175 631.911 728.5 512.594L720.5 512.594Z" fill="#00ffff" fill-rule="nonzero" opacity="1" stroke="none"/>
</g>
<g id="Merged">
<path d="M511.188 199.656C510.278 199.658 509.378 199.709 508.469 199.719C507.573 199.73 506.677 199.7 505.781 199.719C504.834 199.739 503.885 199.815 502.938 199.844C499.426 199.943 495.928 200.096 492.438 200.312C491.27 200.387 490.105 200.474 488.938 200.562C484.322 200.902 479.728 201.333 475.156 201.875C471.863 202.266 468.581 202.724 465.312 203.219C464.644 203.319 463.98 203.427 463.312 203.531C459.226 204.177 455.167 204.882 451.125 205.688C450.01 205.908 448.892 206.112 447.781 206.344C443.894 207.163 440.029 208.067 436.188 209.031C435.197 209.278 434.205 209.525 433.219 209.781C430.18 210.576 427.163 211.459 424.156 212.344C420.791 213.329 417.442 214.343 414.125 215.438C413.727 215.568 413.335 215.711 412.938 215.844C408.56 217.307 404.226 218.85 399.938 220.5C398.993 220.862 398.064 221.255 397.125 221.625C396.221 221.983 395.306 222.321 394.406 222.688C394.302 222.73 394.198 222.77 394.094 222.812C391.513 223.866 388.952 224.943 386.406 226.062C385.063 226.651 383.738 227.269 382.406 227.875C382.021 228.051 381.635 228.228 381.25 228.406C378.432 229.708 375.647 231.055 372.875 232.438C372.003 232.871 371.117 233.278 370.25 233.719C369.578 234.062 368.92 234.433 368.25 234.781C368.084 234.867 367.916 234.945 367.75 235.031C365.283 236.319 362.834 237.649 360.406 239C357.598 240.558 354.811 242.143 352.062 243.781C350.819 244.525 349.576 245.271 348.344 246.031C347.937 246.282 347.531 246.529 347.125 246.781C344.305 248.534 341.535 250.351 338.781 252.188C338 252.71 337.214 253.221 336.438 253.75C336.289 253.851 336.148 253.961 336 254.062C332.859 256.207 329.769 258.405 326.719 260.656C326.4 260.891 326.068 261.108 325.75 261.344C324.855 262.01 323.982 262.699 323.094 263.375C320.84 265.09 318.608 266.822 316.406 268.594C315.61 269.233 314.821 269.884 314.031 270.531C313.328 271.109 312.636 271.698 311.938 272.281C311.688 272.49 311.437 272.697 311.188 272.906C309.292 274.501 307.386 276.081 305.531 277.719C304.784 278.376 304.054 279.054 303.312 279.719C302.293 280.636 301.289 281.57 300.281 282.5C299.761 282.98 299.236 283.454 298.719 283.938C297.843 284.758 296.928 285.545 296.062 286.375C294.725 287.653 293.44 288.979 292.125 290.281C291.461 290.94 290.815 291.616 290.156 292.281C288.791 293.658 287.403 295.003 286.062 296.406C284.963 297.56 283.925 298.767 282.844 299.938C282.574 300.229 282.3 300.52 282.031 300.812C281.407 301.492 280.774 302.159 280.156 302.844C278.614 304.55 277.068 306.258 275.562 308C275.524 308.044 275.476 308.081 275.438 308.125C274.139 309.629 272.865 311.157 271.594 312.688C271.343 312.99 271.093 313.291 270.844 313.594C269.283 315.487 267.768 317.411 266.25 319.344C266.035 319.618 265.808 319.881 265.594 320.156C262.663 323.915 259.826 327.754 257.062 331.656C250.112 341.471 243.667 351.695 237.844 362.375C237.252 363.457 236.704 364.567 236.125 365.656C234.616 368.504 233.144 371.376 231.719 374.281C230.669 376.413 229.658 378.56 228.656 380.719C227.763 382.65 226.855 384.576 226 386.531C224.788 389.291 223.634 392.074 222.5 394.875C222.155 395.73 221.806 396.578 221.469 397.438C221.298 397.871 221.137 398.315 220.969 398.75C219.688 402.038 218.453 405.346 217.281 408.688C217.038 409.383 216.801 410.083 216.562 410.781C216.527 410.884 216.504 410.991 216.469 411.094C216.28 411.645 216.092 412.198 215.906 412.75C214.694 416.367 213.551 420.012 212.469 423.688C211.916 425.556 211.393 427.432 210.875 429.312C210.151 431.955 209.468 434.612 208.812 437.281C208.188 439.806 207.593 442.331 207.031 444.875C206.514 447.234 205.995 449.59 205.531 451.969C204.931 455.027 204.415 458.105 203.906 461.188C203.655 462.72 203.385 464.242 203.156 465.781C203.114 466.063 203.073 466.343 203.031 466.625C202.437 470.669 201.936 474.732 201.5 478.812C201.432 479.459 201.346 480.102 201.281 480.75C201.229 481.26 201.174 481.772 201.125 482.281C200.746 486.26 200.476 490.272 200.25 494.281C200.158 495.866 200.036 497.45 199.969 499.031C199.852 501.876 199.819 504.736 199.781 507.594C199.744 510.021 199.699 512.456 199.719 514.875C199.741 517.07 199.837 519.267 199.906 521.469C200.005 524.802 200.108 528.123 200.312 531.438C200.371 532.354 200.465 533.271 200.531 534.188C200.855 538.76 201.258 543.313 201.781 547.844C201.79 547.917 201.804 547.989 201.812 548.062C202.42 553.292 203.163 558.491 204.031 563.656C204.674 567.482 205.311 571.307 206.094 575.094C206.393 576.554 206.774 577.985 207.094 579.438C207.124 579.573 207.157 579.708 207.188 579.844L207.156 579.844C207.297 580.476 207.481 581.088 207.625 581.719C207.637 581.771 207.644 581.823 207.656 581.875C208.216 584.303 208.727 586.746 209.344 589.156C209.81 590.989 210.314 592.805 210.812 594.625C211.01 595.349 211.235 596.06 211.438 596.781C211.757 597.917 212.074 599.057 212.406 600.188C212.768 601.414 213.092 602.654 213.469 603.875C214.04 605.735 214.676 607.561 215.281 609.406C215.672 610.602 216.095 611.78 216.5 612.969C216.76 613.73 217.015 614.491 217.281 615.25C217.617 616.204 217.905 617.175 218.25 618.125C218.895 619.91 219.605 621.668 220.281 623.438C220.972 625.252 221.684 627.048 222.406 628.844C223.558 631.695 224.736 634.535 225.969 637.344C226.859 639.38 227.788 641.396 228.719 643.406C229.838 645.815 230.947 648.219 232.125 650.594C233.406 653.185 234.746 655.736 236.094 658.281C236.95 659.892 237.804 661.5 238.688 663.094C240.495 666.366 242.365 669.589 244.281 672.781C244.826 673.686 245.353 674.601 245.906 675.5C248.057 679 250.284 682.445 252.562 685.844C253.006 686.504 253.458 687.156 253.906 687.812C256.002 690.887 258.145 693.918 260.344 696.906C260.759 697.471 261.175 698.032 261.594 698.594C261.812 698.886 262.031 699.177 262.25 699.469C264.555 702.535 266.902 705.56 269.312 708.531C269.499 708.762 269.688 708.989 269.875 709.219C270.268 709.7 270.667 710.178 271.062 710.656C271.175 710.793 271.293 710.926 271.406 711.062C273.85 714.011 276.33 716.931 278.875 719.781C279.428 720.403 280.004 721.008 280.562 721.625C280.617 721.685 280.664 721.753 280.719 721.812C280.813 721.916 280.906 722.021 281 722.125C281.085 722.218 281.165 722.314 281.25 722.406C283.704 725.092 286.177 727.75 288.719 730.344C289.469 731.112 290.241 731.864 291 732.625C291.396 733.021 291.821 733.387 292.219 733.781C294.43 735.968 296.633 738.163 298.906 740.281C299.946 741.254 301.009 742.197 302.062 743.156C302.38 743.444 302.713 743.713 303.031 744C303.135 744.094 303.239 744.187 303.344 744.281C305.572 746.279 307.811 748.256 310.094 750.188C311.068 751.015 312.014 751.871 313 752.688C313.845 753.387 314.741 754.028 315.594 754.719C315.801 754.887 316.011 755.051 316.219 755.219C317.737 756.439 319.241 757.683 320.781 758.875C324.295 761.601 327.892 764.232 331.531 766.812C331.683 766.92 331.817 767.049 331.969 767.156C335.833 769.886 339.78 772.502 343.781 775.062C344.034 775.224 344.278 775.401 344.531 775.562C346.31 776.693 348.07 777.842 349.875 778.938C351.131 779.702 352.42 780.409 353.688 781.156C354.463 781.612 355.251 782.05 356.031 782.5C356.618 782.838 357.193 783.197 357.781 783.531C359.396 784.448 360.991 785.392 362.625 786.281C364.618 787.369 366.668 788.361 368.688 789.406C369.677 789.918 370.661 790.436 371.656 790.938C373.11 791.668 374.532 792.447 376 793.156C377.883 794.069 379.815 794.906 381.719 795.781C383.011 796.375 384.294 796.986 385.594 797.562C387.085 798.221 388.558 798.895 390.062 799.531C391.674 800.216 393.312 800.842 394.938 801.5C396.801 802.255 398.684 802.968 400.562 803.688C403.485 804.805 406.411 805.906 409.375 806.938C411.067 807.528 412.765 808.094 414.469 808.656C417.38 809.613 420.302 810.534 423.25 811.406C425.489 812.072 427.743 812.696 430 813.312C432.335 813.947 434.674 814.575 437.031 815.156C440.108 815.92 443.207 816.611 446.312 817.281C447.789 817.598 449.265 817.923 450.75 818.219C454.7 819.011 458.665 819.704 462.656 820.344C463.718 820.513 464.778 820.686 465.844 820.844C470.596 821.555 475.384 822.165 480.188 822.656C483.418 822.987 486.655 823.301 489.906 823.531C490.948 823.606 491.99 823.623 493.031 823.688C494.033 823.748 495.028 823.824 496.031 823.875C500.25 824.089 504.472 824.208 508.719 824.25C510.303 824.269 511.886 824.287 513.469 824.281C517.723 824.258 522.004 824.106 526.281 823.906C530.909 823.698 535.52 823.352 540.125 822.938C543.081 822.667 546.037 822.45 549 822.094C552.399 821.689 555.774 821.142 559.156 820.625C561.543 820.259 563.923 819.892 566.312 819.469C569.921 818.831 573.509 818.141 577.094 817.375C577.916 817.2 578.74 817.088 579.562 816.906C580.807 816.631 582.011 816.259 583.25 815.969C586.442 815.218 589.643 814.539 592.812 813.688C594.388 813.267 595.932 812.758 597.5 812.312C599.77 811.668 602.001 810.943 604.25 810.25C604.354 810.218 604.459 810.189 604.562 810.156C606.879 809.435 609.229 808.839 611.531 808.062L611.531 808.031C613.241 807.457 614.926 806.823 616.625 806.219C619.349 805.254 622.029 804.194 624.719 803.156C628.281 801.776 631.834 800.386 635.344 798.875C638.557 797.497 641.717 796.013 644.875 794.531C647.562 793.266 650.255 792.031 652.906 790.688C656.915 788.664 660.839 786.505 664.75 784.312C665.978 783.622 667.25 783.02 668.469 782.312L668.438 782.25C679.783 775.686 690.653 768.354 701.094 760.438C707.16 812.258 720.058 755.173 734.938 751.969C734.959 751.969 734.979 751.969 735 751.969C753.752 751.969 768.968 736.752 768.969 718C768.969 699.248 753.752 684.032 735 684.031C716.248 684.031 701.032 699.248 701.031 718C701.031 724.509 702.947 730.55 706.125 735.719C690.699 749.092 673.997 760.833 656.188 770.75C652.806 772.638 649.416 774.499 645.969 776.25C643.163 777.67 640.323 779.012 637.469 780.344C634.723 781.63 631.97 782.894 629.188 784.094C625.865 785.52 622.476 786.849 619.094 788.156C616.437 789.187 613.78 790.234 611.094 791.188C607.3 792.529 603.456 793.746 599.594 794.938C597.297 795.651 594.999 796.375 592.688 797.031C588.684 798.161 584.632 799.158 580.562 800.125C578.24 800.676 575.932 801.255 573.594 801.75C571.04 802.292 568.489 802.777 565.938 803.25C562.276 803.924 558.602 804.557 554.906 805.094C553.114 805.357 551.321 805.645 549.531 805.875C537.254 807.428 524.811 808.271 512.25 808.281C512.052 808.282 511.855 808.281 511.656 808.281C509.52 808.278 507.407 808.173 505.281 808.125C501.596 808.037 497.909 807.945 494.219 807.719C492.302 807.605 490.407 807.4 488.5 807.25C484.158 806.899 479.812 806.482 475.469 805.938C473.935 805.748 472.401 805.587 470.875 805.375C465.128 804.564 459.39 803.621 453.656 802.469C453.175 802.372 452.699 802.255 452.219 802.156C447.848 801.254 443.534 800.271 439.25 799.188C438.498 798.996 437.75 798.791 437 798.594C433.164 797.592 429.358 796.488 425.594 795.344C424.248 794.932 422.901 794.524 421.562 794.094C418.632 793.157 415.728 792.178 412.844 791.156C410.785 790.423 408.728 789.684 406.688 788.906C404.367 788.026 402.07 787.091 399.781 786.156C397.281 785.13 394.782 784.093 392.312 783C390.905 782.38 389.52 781.735 388.125 781.094C384.846 779.582 381.594 778.035 378.375 776.406C378.367 776.402 378.352 776.411 378.344 776.406C377.64 776.051 376.95 775.673 376.25 775.312C372.714 773.487 369.208 771.621 365.75 769.656C365.34 769.423 364.94 769.173 364.531 768.938C364.393 768.858 364.263 768.767 364.125 768.688C360.763 766.749 357.44 764.755 354.156 762.688C353.054 761.992 351.968 761.272 350.875 760.562C348.481 759.011 346.099 757.433 343.75 755.812C341.729 754.416 339.734 752.977 337.75 751.531C336.069 750.309 334.406 749.07 332.75 747.812C330.274 745.928 327.82 744.022 325.406 742.062C325.147 741.852 324.883 741.649 324.625 741.438C323.744 740.719 322.873 739.978 322 739.25C319.635 737.271 317.301 735.269 315 733.219C314.884 733.116 314.772 733.01 314.656 732.906C313.559 731.928 312.458 730.963 311.375 729.969C308.915 727.703 306.507 725.378 304.125 723.031C303.553 722.468 302.974 721.912 302.406 721.344C302.396 721.333 302.385 721.323 302.375 721.312C299.967 718.901 297.637 716.43 295.312 713.938C294.554 713.123 293.749 712.354 293 711.531C292.762 711.269 292.518 711.012 292.281 710.75C292.123 710.575 291.97 710.394 291.812 710.219C290.298 708.538 288.851 706.778 287.375 705.062C285.734 703.151 284.06 701.264 282.469 699.312C281.422 698.031 280.432 696.705 279.406 695.406C277.508 692.997 275.604 690.591 273.781 688.125C273.044 687.129 272.35 686.099 271.625 685.094C263.878 674.333 256.813 663.079 250.562 651.375C248.505 647.523 246.544 643.63 244.656 639.688C244.379 639.106 244.117 638.521 243.844 637.938C242.186 634.415 240.614 630.839 239.094 627.25C238.63 626.147 238.17 625.048 237.719 623.938C236.663 621.358 235.64 618.768 234.656 616.156C233.627 613.405 232.608 610.639 231.656 607.844C231.183 606.464 230.735 605.075 230.281 603.688C229.127 600.129 228.026 596.533 227 592.906C226.715 591.908 226.43 590.909 226.156 589.906C225.091 585.988 224.132 582.025 223.219 578.031C223.064 577.351 222.869 576.682 222.719 576C222.693 575.886 222.681 575.771 222.656 575.656C221.675 571.195 220.833 566.737 220.062 562.281C219.963 561.708 219.846 561.136 219.75 560.562C219.191 557.213 218.723 553.874 218.281 550.531C218.01 548.444 217.727 546.351 217.5 544.25C217.27 542.172 217.123 540.105 216.938 538.031C216.664 534.893 216.362 531.759 216.188 528.594C216.126 527.519 216.112 526.448 216.062 525.375C215.875 521.161 215.728 516.946 215.719 512.688C215.719 512.583 215.719 512.48 215.719 512.375C215.718 512.25 215.719 512.125 215.719 512C215.719 511.644 215.749 511.293 215.75 510.938C215.766 506.456 215.881 501.995 216.094 497.562C216.101 497.407 216.086 497.249 216.094 497.094C216.125 496.457 216.183 495.823 216.219 495.188C216.455 490.973 216.777 486.791 217.188 482.625C217.204 482.459 217.202 482.291 217.219 482.125C217.258 481.74 217.334 481.354 217.375 480.969C217.805 476.924 218.274 472.869 218.875 468.812C218.932 468.427 219.004 468.042 219.062 467.656C219.763 463.053 220.576 458.456 221.5 453.844C221.529 453.698 221.533 453.552 221.562 453.406C221.679 452.831 221.818 452.262 221.938 451.688C222.755 447.757 223.661 443.86 224.625 440C224.979 438.592 225.344 437.183 225.719 435.781C226.598 432.468 227.546 429.196 228.531 425.938C229.034 424.288 229.532 422.639 230.062 421C230.893 418.417 231.76 415.859 232.656 413.312C233.587 410.684 234.559 408.067 235.562 405.469C236.13 403.991 236.723 402.527 237.312 401.062C238.662 397.729 240.032 394.404 241.5 391.125C241.804 390.444 242.129 389.772 242.438 389.094C244.131 385.387 245.876 381.725 247.719 378.094C247.961 377.616 248.192 377.133 248.438 376.656C250.314 373.007 252.288 369.411 254.312 365.844C254.741 365.089 255.19 364.344 255.625 363.594C257.355 360.608 259.137 357.643 260.969 354.719C261.864 353.294 262.769 351.878 263.688 350.469C265.436 347.781 267.228 345.131 269.062 342.5C269.944 341.239 270.818 339.965 271.719 338.719C273.284 336.547 274.908 334.411 276.531 332.281C278.223 330.068 279.936 327.882 281.688 325.719C282.776 324.371 283.856 323.017 284.969 321.688C286.882 319.407 288.832 317.159 290.812 314.938C291.994 313.609 293.201 312.307 294.406 311C296.523 308.71 298.657 306.441 300.844 304.219C301.85 303.194 302.853 302.167 303.875 301.156C306.005 299.054 308.183 297.006 310.375 294.969C311.142 294.257 311.913 293.547 312.688 292.844C312.922 292.631 313.14 292.4 313.375 292.188C313.457 292.113 313.543 292.043 313.625 291.969C315.692 290.104 317.819 288.306 319.938 286.5C321.137 285.48 322.316 284.438 323.531 283.438C323.828 283.193 324.109 282.931 324.406 282.688C324.608 282.522 324.829 282.383 325.031 282.219C326.884 280.709 328.767 279.246 330.656 277.781C331.897 276.822 333.12 275.846 334.375 274.906C335.09 274.37 335.811 273.843 336.531 273.312C338.007 272.226 339.504 271.153 341 270.094C342.804 268.819 344.605 267.547 346.438 266.312C346.879 266.015 347.307 265.701 347.75 265.406C347.964 265.264 348.192 265.142 348.406 265C349.335 264.384 350.283 263.794 351.219 263.188C354.128 261.307 357.058 259.434 360.031 257.656C360.123 257.601 360.221 257.555 360.312 257.5C360.345 257.481 360.374 257.457 360.406 257.438C364.077 255.249 367.798 253.154 371.562 251.125C372.272 250.743 372.974 250.345 373.688 249.969C373.696 249.964 373.711 249.973 373.719 249.969C376.953 248.259 380.234 246.653 383.531 245.062C384.77 244.467 386 243.86 387.25 243.281C389.821 242.085 392.425 240.936 395.031 239.812C397.454 238.774 399.883 237.727 402.344 236.75C403.982 236.095 405.631 235.469 407.281 234.844C410.534 233.619 413.81 232.46 417.125 231.344C418.065 231.025 418.994 230.684 419.938 230.375C423.783 229.123 427.668 227.947 431.594 226.844C431.79 226.788 431.991 226.743 432.188 226.688C432.771 226.524 433.353 226.348 433.938 226.188C438.458 224.957 443.035 223.84 447.656 222.812C447.773 222.787 447.883 222.745 448 222.719C448.052 222.707 448.104 222.699 448.156 222.688C460.316 220.004 472.537 218.175 484.75 217.031C486.672 216.856 488.599 216.701 490.531 216.562C494.116 216.297 497.7 216.103 501.281 215.969C504.221 215.864 507.164 215.769 510.125 215.75C511.763 215.738 513.395 215.797 515.031 215.812C520.219 215.865 525.388 216.026 530.531 216.344C530.593 216.348 530.657 216.34 530.719 216.344C531.541 216.397 532.364 216.471 533.188 216.531C533.438 216.549 533.687 216.575 533.938 216.594C538.636 216.938 543.316 217.406 547.969 217.969C548.709 218.06 549.447 218.153 550.188 218.25C552.138 218.504 554.087 218.801 556.031 219.094C558.937 219.527 561.834 220.013 564.719 220.531C565.873 220.741 567.033 220.902 568.188 221.125C570.331 221.54 572.459 222.037 574.594 222.5C578.819 223.413 583.029 224.381 587.188 225.469C589.857 226.172 592.504 226.94 595.156 227.719C599.716 229.048 604.281 230.368 608.75 231.906C609.644 232.215 610.516 232.589 611.406 232.906C616.474 234.705 621.497 236.593 626.438 238.656C628.913 239.694 631.334 240.863 633.781 241.969C637.063 243.446 640.374 244.875 643.594 246.469C649.161 249.233 654.634 252.163 660.031 255.281C676.754 264.925 692.492 276.201 707.062 288.969L696.031 300L730 333.969L763.969 300L730 266.031L718.438 277.594C702.853 263.845 685.971 251.773 668.031 241.438C667.744 241.272 667.444 241.134 667.156 240.969C661.704 237.851 656.174 234.848 650.531 232.062C636.141 224.927 621.185 219.041 605.875 214.219L605.906 214.125C601.859 212.845 597.807 211.643 593.719 210.531C593.687 210.523 593.657 210.509 593.625 210.5C593.035 210.341 592.435 210.218 591.844 210.062C586.165 208.555 580.433 207.244 574.688 206.062C573.956 205.913 573.233 205.738 572.5 205.594C566.12 204.33 559.695 203.267 553.25 202.406C553.229 202.404 553.208 202.409 553.188 202.406C553.157 202.402 553.125 202.41 553.094 202.406C544.518 201.266 535.908 200.481 527.25 200.062C527.104 200.055 526.959 200.038 526.812 200.031C526.51 200.016 526.209 200.014 525.906 200C521.87 199.823 517.829 199.738 513.781 199.719C512.919 199.713 512.049 199.655 511.188 199.656ZM730 284.438L745.562 300L730 315.562L714.438 300L730 284.438ZM735 697.094C746.552 697.094 755.906 706.448 755.906 718C755.906 729.552 746.552 738.906 735 738.906C723.448 738.906 714.094 729.552 714.094 718C714.094 706.448 723.448 697.094 735 697.094ZM512 295.5C392.43 295.5 295.5 392.43 295.5 512L303.5 512C303.5 396.849 396.849 303.5 512 303.5C512.142 303.5 512.139 303.5 512.281 303.5L512.281 295.5C512.134 295.5 512.148 295.5 512 295.5ZM511.938 308C399.302 308.039 308 399.361 308 512C308 512.157 308 512.155 308 512.312L316 512.312C316 512.162 316 512.151 316 512C316 403.778 403.719 316.037 511.938 316L511.938 308ZM512 362C504.963 362 497.979 362.472 491.094 363.438L492.906 376.531C499.192 375.65 505.569 375.188 512 375.188C518.725 375.187 525.406 375.663 531.969 376.625L533.844 363.594C526.654 362.54 519.359 362 512 362ZM450.094 375.406C437.051 381.354 424.902 389.166 414.062 398.562L422.625 408.531C432.52 399.954 443.6 392.833 455.5 387.406L450.094 375.406ZM574.812 375.812L569.312 387.781C581.177 393.285 592.191 400.452 602.031 409.094L610.656 399.188C599.877 389.721 587.816 381.845 574.812 375.812ZM512 404C452.353 404 404 452.353 404 512C404 571.647 452.353 620 512 620C571.647 620 620 571.647 620 512C620 452.353 571.647 404 512 404ZM535.469 423.125C551.335 427.308 565.584 435.523 576.875 446.75L564.125 459.562C573.3 468.705 579.968 480.128 583.375 492.625L600.719 487.906C602.806 495.6 604 503.645 604 512C604 520.164 602.84 528.026 600.844 535.562L583.469 530.938C583.456 530.986 583.451 530.982 583.438 531.031C580.057 543.715 573.539 555.009 564.5 564.094L577.281 576.812C566.085 588.089 551.942 596.393 536.156 600.688L531.406 583.344C519.008 586.733 505.945 586.845 493.219 583.5L488.625 600.906C472.758 596.741 458.519 588.522 447.219 577.312L459.938 564.531C450.749 555.402 444.081 543.961 440.656 531.469L423.344 536.219C421.234 528.485 420 520.402 420 512C420 503.881 421.15 496.062 423.125 488.562L440.5 493.156C440.526 493.056 440.536 493.069 440.562 492.969C443.952 480.251 450.517 468.941 459.594 459.844L446.812 447.062C458.02 435.812 472.184 427.551 487.969 423.281L492.688 440.625C505.09 437.252 518.151 437.168 530.875 440.531L535.469 423.125ZM386.031 430.875C378.253 442.94 372.228 456.075 368.156 469.906L380.719 473.656C384.432 461.042 389.935 449.04 397.031 438.031L386.031 430.875ZM638.531 431.75L627.469 438.844C634.491 449.901 639.904 461.889 643.531 474.531L656.125 470.875C652.147 457.012 646.228 443.868 638.531 431.75ZM708 511.844C708 511.918 708 511.925 708 512C708 620.163 620.371 707.877 512.219 708L512.25 716C624.817 715.872 716 624.578 716 512C716 511.923 716 511.921 716 511.844L708 511.844ZM362 512.438C362 512.594 362 512.611 362 512.781C362.001 527.222 364.025 541.396 367.969 555L380.562 551.281C376.965 538.871 375.126 525.971 375.125 512.781C375.125 512.625 375.125 512.611 375.125 512.469L362 512.438ZM720.5 512.594C720.187 627.501 626.935 720.5 512 720.5C511.715 720.5 511.441 720.501 511.156 720.5L511.125 728.5C511.42 728.501 511.705 728.5 512 728.5C631.345 728.5 728.175 631.911 728.5 512.594L720.5 512.594ZM648.875 512.75C648.875 526.039 646.993 539.067 643.344 551.562L655.969 555.281C659.97 541.583 662 527.299 662 512.75L648.875 512.75ZM396.688 586.906L385.656 594.031C393.385 606.139 402.823 617.09 413.625 626.531L422.219 616.594C412.357 607.974 403.742 597.959 396.688 586.906ZM627.125 587.188C620.044 598.222 611.445 608.185 601.562 616.781L610.125 626.75C620.948 617.335 630.399 606.432 638.156 594.344L627.125 587.188ZM454.938 637.812L449.469 649.812C462.438 655.798 476.208 659.878 490.469 661.938L492.344 648.906C479.336 647.028 466.766 643.272 454.938 637.812ZM568.75 637.969C556.908 643.395 544.295 647.094 531.281 648.938L533.094 662C547.361 659.979 561.172 655.919 574.156 649.969L568.75 637.969ZM735 707.281C729.083 707.281 724.281 712.083 724.281 718C724.281 723.917 729.083 728.719 735 728.719C740.917 728.719 745.719 723.917 745.719 718C745.719 712.083 740.917 707.281 735 707.281ZM709 799.25C706.999 799.252 705.005 801.498 703 806L703 806.062C702.557 806.962 702.25 807.93 702.25 809C702.25 812.733 705.268 815.75 709 815.75C712.733 815.75 715.75 812.732 715.75 809C715.75 807.93 715.443 806.962 715 806.062L715 805.969C713 801.474 711.001 799.248 709 799.25Z" fill="url(#LinearGradient)" fill-rule="nonzero" opacity="1" stroke="none"/>
</g>
</svg>
